<?xml version="1.0" encoding="UTF-8" standalone="no" ?>
<!DOCTYPE svg PUBLIC "-//W3C//DTD SVG 1.1//EN" "http://www.w3.org/Graphics/SVG/1.1/DTD/svg11.dtd">
<svg xmlns="http://www.w3.org/2000/svg" xmlns:xlink="http://www.w3.org/1999/xlink" version="1.1" width="1080" height="1080" viewBox="0 0 1080 1080" xml:space="preserve">
<desc>Created with Fabric.js 5.2.4</desc>
<defs>
</defs>
<g transform="matrix(1 0 0 1 540 540)" id="c34da0af-c98d-4e2f-8777-9aaf7e57425c"  >
<rect style="stroke: none; stroke-width: 1; stroke-dasharray: none; stroke-linecap: butt; stroke-dashoffset: 0; stroke-linejoin: miter; stroke-miterlimit: 4; fill: rgb(255,255,255); fill-rule: nonzero; opacity: 1; visibility: hidden;" vector-effect="non-scaling-stroke"  x="-540" y="-540" rx="0" ry="0" width="1080" height="1080" />
</g>
<g transform="matrix(1 0 0 1 540 540)" id="40a0c65b-f6a8-401f-bd0a-a5e875fffeb2"  >
</g>
<g transform="matrix(2.54 0 0 2.54 540 300.2)"  >
<g style=""   >
		<g transform="matrix(1 0 0 1 -41.82 -0.75)"  >
<path style="stroke: none; stroke-width: 1; stroke-dasharray: none; stroke-linecap: butt; stroke-dashoffset: 0; stroke-linejoin: miter; stroke-miterlimit: 4; fill: rgb(255,255,255); fill-rule: nonzero; opacity: 1;" vector-effect="non-scaling-stroke"  transform=" translate(-170.63, -38.25)" d="M 134 28 L 137.45 21 C 137.45 21 134 18.23 127.38 18.23 C 119.50999999999999 18.23 105.92999999999999 24.8 105.92999999999999 42.010000000000005 C 105.92999999999999 59.22000000000001 121.61999999999999 60.53 131.7 55.720000000000006 L 130.26 48.13000000000001 C 127.04421870495413 49.43087013633202 123.59828846129388 50.0669895396533 120.13 50 C 110.49 50 113.94 26 126.32 26 C 131.93 26 133.95 28 133.95 28 M 166.48 21.3 L 162.6 28.73 C 162.6 28.73 159.85999999999999 26.11 153.53 26.11 C 147.20000000000002 26.11 145.03 32.11 151.37 33.69 C 157.71 35.269999999999996 164 38.93 164 45.64 C 164 52.35 159 58.04 148 58.04 C 137 58.04 134.18 54.39 134.18 54.39 L 137.18 47.54 C 140.5881950592053 49.356877259280196 144.40905111463374 50.259550195729474 148.27 50.16 C 152.27 50.16 154.89000000000001 49.43 154.89000000000001 46.66 C 154.89000000000001 43.88999999999999 153.16000000000003 42.87 149.89000000000001 42 C 146.62 41.13 135.75 38 138.8 28.14 C 142 17.93 153 15.600000000000001 166.48000000000002 21.29 M 194.84 28 L 198.44 20.57 C 198.44 20.57 194.7 18.38 188.22 18.38 C 181.74 18.38 168.35 21.299999999999997 166.77 41.379999999999995 C 165.19000000000003 61.459999999999994 188.36 60.199999999999996 195.56 54.64999999999999 L 198.56 35.64999999999999 L 186.2 35.64999999999999 L 183 43.30999999999999 L 189 43.30999999999999 L 188.43 48.30999999999999 C 188.43 48.30999999999999 187.36 50 182.32 50 C 171.95 50 173.25 26.22 186.92 26.22 C 193.26 26.22 194.83999999999997 27.97 194.83999999999997 27.97 M 215.62999999999997 50.8 C 204.52999999999997 50.8 209.07999999999996 26.189999999999998 221.01999999999995 26.189999999999998 C 232.95999999999995 26.189999999999998 228.01999999999995 50.8 215.62999999999997 50.8 M 221 18.47 C 205.17 18.47 201.11 36.19 201.11 41.730000000000004 C 201.11 47.27000000000001 202.27 58.27 215.03 58.27 C 227.79 58.27 235.34 47.440000000000005 235.34 35.1 C 235.34 24.18 230.61 18.470000000000002 221 18.470000000000002" stroke-linecap="round" />
</g>
		<g transform="matrix(1 0 0 1 121.15 0.16)"  >
<path style="stroke: none; stroke-width: 1; stroke-dasharray: none; stroke-linecap: butt; stroke-dashoffset: 0; stroke-linejoin: miter; stroke-miterlimit: 4; fill: rgb(233,177,14); fill-rule: nonzero; opacity: 1;" vector-effect="non-scaling-stroke"  transform=" translate(-333.61, -39.16)" d="M 398.12 20.44 L 424.91 20.44 L 422.24 27.87 L 406 27.87 L 404.76 34.74 L 418.31 34.74 L 416.82 42.36 L 403.46 42.36 L 402 50.48 L 420 50.48 L 418.51 58 L 391.65 58 Z M 248.77 20.44 L 275.56 20.44 L 272.89 27.87 L 256.66999999999996 27.87 L 255.41999999999996 34.74 L 269 34.74 L 267.51 42.36 L 254.12 42.36 L 252.63 50.48 L 270.63 50.48 L 269.16 58 L 242.31000000000003 58 Z M 337.87 33.44 C 336.96 38.589999999999996 330.67 38.28 330.67 38.28 L 326.42 38.28 L 328.09 28 L 333.59 28 C 334.41999999999996 28 338.78 28.27 337.86999999999995 33.42 M 334.7099999999999 20.160000000000004 L 320.44999999999993 20.330000000000005 L 313.9099999999999 58.10000000000001 L 322.9099999999999 58.10000000000001 L 325 46.43 L 330.14 46.43 C 330.14 46.43 344.78999999999996 47.27 346.96999999999997 33.16 C 348.61999999999995 22.409999999999997 339.76 20.159999999999997 334.7 20.159999999999997 M 382 33.41 C 381.09 37.64 374.87 37.33 374.87 37.33 L 370.62 37.33 L 372.21 28.029999999999998 L 377.71 28.029999999999998 C 378.54999999999995 28.029999999999998 383.09999999999997 28.339999999999996 382 33.449999999999996 M 383.74 41.91 C 383.74 41.91 391.86 39.68 391.86 30.839999999999996 C 391.86 21.999999999999993 384.86 20.229999999999997 381.86 20.229999999999997 C 378.86 20.229999999999997 364.86 20.08 364.86 20.08 L 358.33000000000004 58.08 L 367.44000000000005 58.08 L 369.71000000000004 44.71 L 375.25000000000006 44.71 C 375.25000000000006 44.71 379.65000000000003 48.4 380.4800000000001 57.71 L 389.2000000000001 57.71 C 389.2000000000001 57.71 388.7500000000001 46.03 383.7400000000001 41.96 M 361.3200000000001 20.23 L 354.5200000000001 58.230000000000004 L 345.5200000000001 58.230000000000004 L 351.9800000000001 20.230000000000004 Z M 271.8800000000001 57.94 L 278.5100000000001 20.229999999999997 L 290.7000000000001 20.229999999999997 L 293.7000000000001 39.97 L 304 20.23 L 316.6 20.23 L 310.05 57.94 L 301.05 57.94 L 305.36 34.42 L 296.09000000000003 51.3 L 288.38000000000005 51.3 L 285.06000000000006 32.83 L 281.06000000000006 57.769999999999996 Z" stroke-linecap="round" />
</g>
		<g transform="matrix(1 0 0 1 -173.45 0.3)"  >
<path style="stroke: none; stroke-width: 1; stroke-dasharray: none; stroke-linecap: butt; stroke-dashoffset: 0; stroke-linejoin: miter; stroke-miterlimit: 4; fill: rgb(54,51,50); fill-rule: nonzero; opacity: 1;" vector-effect="non-scaling-stroke"  transform=" translate(-39, -39.3)" d="M 78 39 C 78.12154789497502 54.80075974700961 68.69695520691923 69.11338900567402 54.1336989906795 75.24448604076056 C 39.570442774439776 81.37558307584712 22.746880619847815 78.11336602875903 11.530669690605492 66.98343364512628 C 0.31445876136316997 55.85350126149353 -3.0775707654062927 39.05563117861529 2.9408875750366406 24.44546548216116 C 8.959345915479574 9.835299785707036 23.19877276111321 0.30046749879292634 38.999999999999964 0.29999999999999716 C 49.303683877680854 0.2601406353034811 59.20118144718373 4.315075961542397 66.51511691921881 11.572750391484902 C 73.8290523912539 18.830424821427407 77.96029423593816 28.69631552926648 78 38.99999999999998 Z" stroke-linecap="round" />
</g>
		<g transform="matrix(1 0 0 1 -175.81 -1.73)"  >
<path style="stroke: none; stroke-width: 1; stroke-dasharray: none; stroke-linecap: butt; stroke-dashoffset: 0; stroke-linejoin: miter; stroke-miterlimit: 4; fill: rgb(233,177,14); fill-rule: nonzero; opacity: 1;" vector-effect="non-scaling-stroke"  transform=" translate(-36.64, -37.27)" d="M 69.91 37 C 70.01941033271623 50.48139987011611 61.98208858141867 62.69610915361072 49.557771769953725 67.93027239592759 C 37.13345495848878 73.16443563824447 22.778582515932968 70.38319473315876 13.208145712376535 60.88757192746538 C 3.637708908820102 51.391949121772 0.7439001822446158 37.05934521082247 5.8803992963697596 24.59433458389306 C 11.016898410494903 12.129323956963646 23.16815665203366 3.9963917082844134 36.649999999999935 4 C 54.944986385758746 3.9335906417295092 69.83283281216114 18.705055827276084 69.91 37 Z" stroke-linecap="round" />
</g>
		<g transform="matrix(1 0 0 1 -179.41 -3.95)"  >
<path style="stroke: none; stroke-width: 1; stroke-dasharray: none; stroke-linecap: butt; stroke-dashoffset: 0; stroke-linejoin: miter; stroke-miterlimit: 4; fill: rgb(255,255,255); fill-rule: nonzero; opacity: 1;" vector-effect="non-scaling-stroke"  transform=" translate(-33.04, -35.05)" d="M 62.7 34.83 C 62.78909126438452 46.84232535747013 55.623757927619295 57.72220645201732 44.55285666146974 62.38472110639403 C 33.481955395320185 67.04723576077075 20.691925506372563 64.57156415527234 12.16043403572752 56.11475914194606 C 3.6289425650824754 47.657954128619785 1.0409099945312477 34.890186043625036 5.605903239288587 23.77871744481105 C 10.170896484045926 12.667248845997062 20.987355641743605 5.4065308547579995 33.00000000000005 5.390000000000001 C 40.84407805728004 5.35012785832924 48.38214225402854 8.430719999701473 53.95314595875844 13.952953975029697 C 59.52414966348834 19.47518795035792 62.67090134518067 26.985874578726357 62.7 34.82999999999999 Z" stroke-linecap="round" />
</g>
		<g transform="matrix(1 0 0 1 -188.3 -10.39)"  >
<path style="stroke: none; stroke-width: 1; stroke-dasharray: none; stroke-linecap: butt; stroke-dashoffset: 0; stroke-linejoin: miter; stroke-miterlimit: 4; fill: rgb(233,177,14); fill-rule: nonzero; opacity: 1;" vector-effect="non-scaling-stroke"  transform=" translate(-24.16, -28.61)" d="M 9.1 23.17 L 18.1 15.750000000000002 C 19.149501519936933 14.890907238196933 20.46372099649058 14.421038446848451 21.819999999999997 14.420000000000002 L 33.2 14.420000000000002 C 34.06854726309201 14.43482894752264 34.82821116560018 15.00861763984264 35.080000000000005 15.84 L 39.92 33 L 28 42.79 L 16.78 40.16 C 15.589149314841636 39.87882586303039 14.597896483715003 39.05771344321654 14.100000000000001 37.94 L 8.56 25.48 C 8.21461495267527 24.674838666425423 8.433473467627724 23.73861057468437 9.1 23.17 Z" stroke-linecap="round" />
</g>
		<g transform="matrix(1 0 0 1 -188.66 -10.56)"  >
<path style="stroke: none; stroke-width: 1; stroke-dasharray: none; stroke-linecap: butt; stroke-dashoffset: 0; stroke-linejoin: miter; stroke-miterlimit: 4; fill: rgb(54,51,50); fill-rule: nonzero; opacity: 1;" vector-effect="non-scaling-stroke"  transform=" translate(-23.8, -28.44)" d="M 10.48 25.12 L 21.72 25.6 C 22.917574811679387 25.644388626649494 23.965474839070097 26.418405692335813 24.36 27.549999999999997 L 28.72 39.94 C 28.824335916335492 40.275073792989595 28.745389161022846 40.64031861141847 28.511981796869186 40.90239003783662 C 28.278574432715523 41.164461464254764 27.924870104123656 41.28500031898183 27.58 41.22 L 17.58 38.91 C 16.384615335611972 38.639532669165376 15.387297668421155 37.820175031807864 14.889999999999999 36.699999999999996 L 10 25.8 C 9.893436291140185 25.556875739645992 9.999849746790655 25.273106524578072 10.24 25.16 C 10.314480746164577 25.123839184001394 10.397817407898826 25.109949740379022 10.48 25.12 Z M 10.610000000000001 23.43 L 18.21 17.43 C 19.57038122233374 16.340142939427068 21.256985315328656 15.738035841510301 22.999999999999996 15.72 L 32.33 15.65 C 32.45902761366347 15.647311338134779 32.58370233980298 15.696693179747077 32.6758943320172 15.787003702732436 C 32.768086324231426 15.877314225717797 32.820028009965704 16.000944379410434 32.82 16.13 C 32.82196614464916 16.265585816387446 32.76765839751328 16.395924409513565 32.67 16.49 L 25.21 23.689999999999998 C 24.44116988538206 24.435630615621392 23.40013758307484 24.833247119974843 22.330000000000002 24.79 L 10.890000000000002 24.3 C 10.687961820444055 24.2882936765674 10.513906347212139 24.15358414218104 10.451905443756216 23.960938477871565 C 10.389904540300293 23.768292813562088 10.452715690108532 23.557350343024876 10.610000000000003 23.43 Z M 26 24.29 L 33.45 17.099999999999998 C 33.641012877723384 16.910611107784828 33.94898712227662 16.910611107784828 34.14 17.099999999999998 C 34.19205240870732 17.16079652480777 34.229659744350805 17.23259234739988 34.25 17.31 L 37.49 28.599999999999998 C 37.837671943923056 29.825276667113688 37.56514259370506 31.14312407296237 36.760000000000005 32.129999999999995 L 30.440000000000005 39.92999999999999 C 30.35784587846294 40.03087648853725 30.238947724277473 40.094941150477595 30.109514555960562 40.108072051611195 C 29.980081387643647 40.121202952744795 29.85073948203943 40.082322064986016 29.750000000000004 39.99999999999999 C 29.680253391651302 39.94227985094164 29.62825236504401 39.86601167858428 29.600000000000005 39.779999999999994 L 25.300000000000004 27.349999999999994 C 24.92117853441249 26.28050234696592 25.193874512600946 25.088431356599234 26.000000000000004 24.289999999999996 Z" stroke-linecap="round" />
</g>
		<g transform="matrix(1 0 0 1 -186.06 -10.8)"  >
<path style="stroke: none; stroke-width: 1; stroke-dasharray: none; stroke-linecap: butt; stroke-dashoffset: 0; stroke-linejoin: miter; stroke-miterlimit: 4; fill: rgb(255,255,255); fill-rule: nonzero; opacity: 1;" vector-effect="non-scaling-stroke"  transform=" translate(-26.4, -28.2)" d="M 22.28 20.76 C 23.200000000000003 20.310000000000002 23.75 19.55 23.51 19.07 C 23.270000000000003 18.59 22.340000000000003 18.55 21.43 19 C 20.519999999999996 19.45 20 20.2 20.19 20.69 C 20.380000000000003 21.180000000000003 21.36 21.200000000000003 22.28 20.76 Z M 18.62 37.49 C 19.07 37.050000000000004 18.89 36.13 18.21 35.43 C 17.53 34.73 16.62 34.52 16.21 34.95 C 15.8 35.38 15.940000000000001 36.31 16.62 37.010000000000005 C 17.3 37.71000000000001 18.17 37.92 18.62 37.49 Z M 22.51 30.580000000000002 C 22.96 30.150000000000002 22.78 29.23 22.110000000000003 28.580000000000002 C 21.440000000000005 27.930000000000003 20.520000000000003 27.66 20.110000000000003 28.1 C 19.700000000000003 28.540000000000003 19.840000000000003 29.46 20.51 30.16 C 21.18 30.86 22.060000000000002 31 22.51 30.580000000000002 Z M 31 36.87 C 31.398008258235382 36.73764936990747 31.72705814268857 36.45247371481173 31.914636000075554 36.07731800003777 C 32.10221385746253 35.70216228526381 32.13292445086721 35.267816984643815 32 34.87 C 31.83 33.87 31.12 33.239999999999995 30.42 33.36 C 30.02199174176462 33.492350630092524 29.69294185731143 33.777526285188266 29.505363999924448 34.152681999962226 C 29.317786142537468 34.52783771473619 29.28707554913279 34.96218301535618 29.42 35.36 C 29.6 36.32 30.3 37 31 36.87 Z M 35.730000000000004 31.499999999999996 C 36.12800825823539 31.367649369907472 36.457058142688574 31.082473714811734 36.64463600007556 30.707318000037773 C 36.832213857462534 30.332162285263813 36.86292445086721 29.897816984643818 36.730000000000004 29.499999999999996 C 36.56 28.499999999999996 35.85 27.869999999999997 35.150000000000006 27.989999999999995 C 34.75199174176462 28.12235063009252 34.422941857311436 28.407526285188258 34.23536399992445 28.782681999962218 C 34.047786142537475 29.157837714736182 34.0170755491328 29.592183015356174 34.150000000000006 29.989999999999995 C 34.330000000000005 30.999999999999996 35.00000000000001 31.619999999999994 35.730000000000004 31.499999999999996 Z M 32.120000000000005 30.33 C 32.51800825823539 30.197649369907474 32.847058142688574 29.912473714811735 33.03463600007556 29.537318000037775 C 33.222213857462535 29.162162285263815 33.25292445086721 28.72781698464382 33.120000000000005 28.33 C 32.95 27.38 32.25000000000001 26.7 31.550000000000004 26.819999999999997 C 31.151991741764622 26.95235063009252 30.82294185731143 27.23752628518826 30.63536399992445 27.61268199996222 C 30.44778614253747 27.987837714736184 30.417075549132793 28.422183015356175 30.550000000000004 28.819999999999997 C 30.710000000000004 29.779999999999998 31.420000000000005 30.459999999999997 32.120000000000005 30.33 Z M 28.120000000000005 28.84 C 28.92319068412881 28.564340673752323 29.364845501281636 27.703113780304314 29.120000000000005 26.89 C 28.950000000000003 25.89 28.240000000000006 25.25 27.540000000000006 25.38 C 26.733122967080487 25.651389895823748 26.289536222583177 26.516384047593505 26.540000000000006 27.33 C 26.760000000000005 28.29 27.460000000000008 29 28.160000000000007 28.84 Z M 33.370000000000005 23.56 C 33.76800825823539 23.427649369907474 34.097058142688574 23.142473714811736 34.28463600007556 22.767318000037776 C 34.472213857462535 22.392162285263815 34.50292445086721 21.95781698464382 34.370000000000005 21.56 C 34.2 20.56 33.50000000000001 19.93 32.790000000000006 20.049999999999997 C 32.39199174176462 20.18235063009252 32.062941857311436 20.46752628518826 31.875363999924453 20.84268199996222 C 31.687786142537473 21.217837714736184 31.657075549132795 21.652183015356176 31.790000000000006 22.049999999999997 C 32.00000000000001 22.999999999999996 32.7 23.689999999999998 33.410000000000004 23.56 Z" stroke-linecap="round" />
</g>
		<g transform="matrix(1 0 0 1 -173.4 3.13)"  >
<path style="stroke: none; stroke-width: 1; stroke-dasharray: none; stroke-linecap: butt; stroke-dashoffset: 0; stroke-linejoin: miter; stroke-miterlimit: 4; fill: rgb(233,177,14); fill-rule: nonzero; opacity: 1;" vector-effect="non-scaling-stroke"  transform=" translate(-39.05, -42.13)" d="M 26.09 26.93 L 39.9 25.22 C 41.23520941653872 25.052725978925654 42.58735330028589 25.349279728885868 43.72999999999999 26.059999999999995 L 55.419999999999995 33.37 C 56.160607270625384 33.847181281810876 56.50173310764522 34.752789158661166 56.26 35.599999999999994 L 51.26 51.699999999999996 C 50.882720697802334 52.87247955471228 49.986320074675454 53.80576909237113 48.83 54.23 L 35.29 59 C 34.58583602791192 59.22132175713006 33.81701369503912 59.036804397240594 33.29 58.52 L 23.45 48.52 C 22.124603853477986 47.17004659087641 21.53245962183604 45.26326768143819 21.86 43.400000000000006 L 24.4 28.540000000000006 C 24.55927803025124 27.696172294202803 25.239445503213254 27.048202098067396 26.09 26.930000000000007 Z" stroke-linecap="round" />
</g>
		<g transform="matrix(1 0 0 1 -173.75 2.83)"  >
<path style="stroke: none; stroke-width: 1; stroke-dasharray: none; stroke-linecap: butt; stroke-dashoffset: 0; stroke-linejoin: miter; stroke-miterlimit: 4; fill: rgb(54,51,50); fill-rule: nonzero; opacity: 1;" vector-effect="non-scaling-stroke"  transform=" translate(-38.71, -41.83)" d="M 41.63 38.65 L 53.82 36.199999999999996 C 53.94875014379301 36.17362347414758 54.082699261524795 36.200072838711996 54.191760658262574 36.2734072261736 C 54.30082205500035 36.34674161363521 54.37585279180057 36.46081318573887 54.4 36.589999999999996 C 54.41489726647016 36.66930647328661 54.41489726647016 36.750693526713384 54.4 36.83 L 50.239999999999995 50.31 C 49.87986807809113 51.48919454605392 48.9820325213432 52.42784080992676 47.81999999999999 52.84 L 36.3 57 C 36.17671797472048 57.04471602161785 36.04065616135282 57.03814841030574 35.92225406648997 56.981766460371055 C 35.803851971627125 56.925384510436366 35.7129915740126 56.82389392604267 35.669999999999995 56.7 C 35.63951590224131 56.61258133393378 35.63951590224131 56.51741866606622 35.669999999999995 56.43 L 39.37 40.879999999999995 C 39.62270297332621 39.75882553262753 40.50554890612226 38.88769879362967 41.629999999999995 38.65 Z M 28 27.91 L 40.35 26.66 C 41.194059048170935 26.56971843860631 42.04438843487263 26.75946135960586 42.77 27.2 L 53 33.41 C 53.449967514064745 33.697032074339866 53.59521871327216 34.28683997415179 53.33 34.75 C 53.18434030362857 34.982913200315 52.949278968617584 35.14564797070722 52.68 35.2 L 40.94 37.53 C 39.897293196334914 37.74116635373473 38.813578055258056 37.51719855791218 37.94 36.910000000000004 L 27.519999999999996 29.690000000000005 C 27.202410697680683 29.442744513057097 27.064010279506473 29.02918479604718 27.16880359518978 28.64057625038826 C 27.27359691087308 28.25196770472934 27.601157012386082 27.964060262691255 27.999999999999996 27.910000000000004 Z M 26.1 29.91 L 36.86 37.480000000000004 C 37.83439500015111 38.17212215354186 38.28650971782333 39.38965915639598 38 40.55 L 34.17 56.269999999999996 C 34.10127936941607 56.52849166766557 33.841299389170864 56.687123520018574 33.58 56.629999999999995 C 33.49427146283913 56.61049370977656 33.415041543848844 56.569156360738155 33.35 56.51 L 24.8 48.239999999999995 C 23.393364933286207 46.88711679150936 22.755502233371715 44.92099882236116 23.1 43 L 25.32 30.189999999999998 C 25.36587342569432 29.925962244527902 25.615356687841754 29.747759914422595 25.88 29.79 C 25.951594350862123 29.812401261955323 26.019122379918468 29.846165276483497 26.08 29.89 Z" stroke-linecap="round" />
</g>
		<g transform="matrix(1 0 0 1 -174.23 1.88)"  >
<path style="stroke: none; stroke-width: 1; stroke-dasharray: none; stroke-linecap: butt; stroke-dashoffset: 0; stroke-linejoin: miter; stroke-miterlimit: 4; fill: rgb(255,255,255); fill-rule: nonzero; opacity: 1;" vector-effect="non-scaling-stroke"  transform=" translate(-38.23, -40.88)" d="M 39.78 35.5 C 40.96 35.67 41.980000000000004 35.34 42.06 34.76 C 42.14 34.17999999999999 41.25 33.58 40.06 33.419999999999995 C 38.870000000000005 33.25999999999999 37.86 33.57999999999999 37.78 34.16 C 37.7 34.74 38.6 35.339999999999996 39.78 35.5 Z M 40.29 32.61 C 41.47 32.769999999999996 42.49 32.44 42.57 31.86 C 42.65 31.28 41.76 30.689999999999998 40.57 30.52 C 39.38 30.35 38.37 30.69 38.29 31.259999999999998 C 38.21 31.829999999999995 39.11 32.44 40.29 32.61 Z M 48.62 34.61 C 49.8 34.769999999999996 50.82 34.44 50.9 33.86 C 50.98 33.28 50.089999999999996 32.69 48.9 32.519999999999996 C 47.71 32.349999999999994 46.699999999999996 32.69 46.62 33.26 C 46.54 33.83 47.44 34.4 48.62 34.57 Z M 32.19 30.65 C 33.37 30.82 34.39 30.479999999999997 34.48 29.91 C 34.56999999999999 29.340000000000003 33.669999999999995 28.73 32.48 28.57 C 31.29 28.41 30.279999999999998 28.73 30.199999999999996 29.31 C 30.119999999999994 29.889999999999997 30.999999999999996 30.479999999999997 32.19 30.65 Z M 40.78 29.939999999999998 C 41.96 30.11 42.980000000000004 29.769999999999996 43.06 29.2 C 43.14 28.630000000000003 42.25 28.02 41.06 27.849999999999998 C 39.870000000000005 27.679999999999996 38.86 28.02 38.78 28.599999999999998 C 38.7 29.179999999999996 39.6 29.769999999999996 40.78 29.939999999999998 Z M 27.43 37 C 28.16 37 28.72 36.07 28.68 35 C 28.64 33.93 28 33 27.3 33.05 C 26.6 33.099999999999994 26 34 26 35.07 C 26 36.14 26.7 37 27.43 37 Z M 34.18 42.09 C 34.91 42.09 35.47 41.160000000000004 35.43 40.09 C 35.39 39.02 34.77 38.09 34.04 38.160000000000004 C 33.309999999999995 38.230000000000004 32.75 39.09 32.79 40.160000000000004 C 32.83 41.230000000000004 33.449999999999996 42.11000000000001 34.18 42.09 Z M 26.63 42 C 27.36 42 27.919999999999998 41.07 27.88 40 C 27.84 38.93 27.22 38 26.49 38.07 C 25.759999999999998 38.14 25.2 39 25.24 40.07 C 25.279999999999998 41.14 25.9 42.07 26.63 42 Z M 33.23 47.480000000000004 C 33.959999999999994 47.480000000000004 34.519999999999996 46.550000000000004 34.48 45.480000000000004 C 34.44 44.410000000000004 33.82 43.480000000000004 33.089999999999996 43.550000000000004 C 32.35999999999999 43.620000000000005 31.799999999999997 44.49 31.839999999999996 45.550000000000004 C 31.879999999999995 46.61000000000001 32.49999999999999 47.550000000000004 33.23 47.52 Z M 25.799999999999997 46.75000000000001 C 26.529999999999998 46.75000000000001 27.089999999999996 45.82000000000001 27.049999999999997 44.75000000000001 C 27.009999999999998 43.68000000000001 26.389999999999997 42.75000000000001 25.669999999999998 42.82000000000001 C 24.95 42.89000000000001 24.38 43.75000000000001 24.409999999999997 44.82000000000001 C 24.439999999999994 45.89000000000001 25.069999999999997 46.81000000000001 25.799999999999997 46.790000000000006 Z M 32.22 52.75000000000001 C 32.94 52.75000000000001 33.5 51.82000000000001 33.47 50.75000000000001 C 33.44 49.68000000000001 32.81 48.800000000000004 32.08 48.82000000000001 C 31.349999999999994 48.84000000000001 30.79 49.75000000000001 30.83 50.82000000000001 C 30.869999999999997 51.89000000000001 31.49 52.78000000000001 32.22 52.75000000000001 Z M 40.92 44.11000000000001 C 41.6 44.540000000000006 42.65 44.11000000000001 43.25 43.11000000000001 C 43.88144763293194 42.364616986009146 43.824520962828494 41.25673640630357 43.12 40.580000000000005 C 42.43 40.150000000000006 41.39 40.580000000000005 40.78 41.580000000000005 C 40.17 42.580000000000005 40.230000000000004 43.68000000000001 40.92 44.11000000000001 Z M 38.6 53.790000000000006 C 39.29 54.220000000000006 40.33 53.790000000000006 40.94 52.790000000000006 C 41.57394466158674 52.043754091139014 41.51241050865517 50.93174404173298 40.8 50.260000000000005 C 40.12 49.830000000000005 39.07 50.260000000000005 38.459999999999994 51.260000000000005 C 37.84999999999999 52.260000000000005 37.919999999999995 53.36000000000001 38.599999999999994 53.790000000000006 Z M 49.29 42 C 49.98 42.43 51.019999999999996 42 51.629999999999995 41 C 52.239999999999995 40 52.17999999999999 38.89 51.489999999999995 38.46 C 50.8 38.03 49.76 38.46 49.14999999999999 39.46 C 48.539999999999985 40.46 48.60999999999999 41.59 49.28999999999999 42 Z M 46.66 51.44 C 47.339999999999996 51.87 48.38999999999999 51.44 49 50.44 C 49.63010588495049 49.68877574783436 49.56885025036187 48.57742352029803 48.86 47.9 C 48.18 47.47 47.13 47.9 46.519999999999996 48.9 C 45.878403724491456 49.65106426996739 45.94003796580073 50.773687950957736 46.66 51.449999999999996 Z" stroke-linecap="round" />
</g>
</g>
</g>
</svg>